<?xml version="1.0" encoding="UTF-8" standalone="no"?>
<!-- Created with Inkscape (http://www.inkscape.org/) -->

<svg
   width="210mm"
   height="297mm"
   viewBox="0 0 210 297"
   version="1.1"
   id="svg5"
   inkscape:version="1.1.2 (0a00cf5339, 2022-02-04)"
   sodipodi:docname="logo.svg"
   xmlns:inkscape="http://www.inkscape.org/namespaces/inkscape"
   xmlns:sodipodi="http://sodipodi.sourceforge.net/DTD/sodipodi-0.dtd"
   xmlns="http://www.w3.org/2000/svg"
   xmlns:svg="http://www.w3.org/2000/svg"
   xmlns:rdf="http://www.w3.org/1999/02/22-rdf-syntax-ns#"
   xmlns:cc="http://creativecommons.org/ns#">
  <sodipodi:namedview
     id="namedview7"
     pagecolor="#ffffff"
     bordercolor="#666666"
     borderopacity="1.0"
     inkscape:pageshadow="2"
     inkscape:pageopacity="0.0"
     inkscape:pagecheckerboard="0"
     inkscape:document-units="mm"
     showgrid="false"
     inkscape:zoom="1.5823796"
     inkscape:cx="372.22422"
     inkscape:cy="381.07165"
     inkscape:window-width="1920"
     inkscape:window-height="1132"
     inkscape:window-x="0"
     inkscape:window-y="0"
     inkscape:window-maximized="1"
     inkscape:current-layer="layer1" />
  <defs
     id="defs2" />
  <g
     inkscape:label="Layer 1"
     inkscape:groupmode="layer"
     id="layer1">
    <path
       style="fill:#0096c2;fill-opacity:1;stroke:none;stroke-width:0.265;stroke-linecap:butt;stroke-linejoin:miter;stroke-miterlimit:4;stroke-dasharray:none;stroke-opacity:0.599122"
       d="m 92.620443,153.94253 c 0,0 -15.867956,-11.00546 -16.502114,-22.08328 -0.514257,-8.98334 2.496988,-14.76388 3.488083,-16.96896 1.382888,-3.07677 20.773978,-23.552637 23.960218,-28.563142 3.18625,-5.010507 3.60378,-8.617471 2.89756,-10.927543 -0.70622,-2.310071 -2.89903,-6.496558 -2.89903,-6.496558 0,0 -0.24254,-2.014701 4.63604,2.781581 4.87857,4.796279 16.2526,18.213379 15.05665,28.948832 -1.19594,10.73545 -4.27325,20.59141 -5.68661,23.27968 -1.41337,2.68827 1.40676,0.20629 1.40676,0.20629 0,0 4.13752,-1.97854 5.41724,-7.35163 1.27971,-5.3731 0.13643,-8.5965 6.18981,5.73753 6.05338,14.33403 -2.45576,25.43018 -6.20814,28.34673 -5.17222,4.02012 -5.95618,3.60407 -5.95618,3.60407 0,0 1.16887,-2.24426 0.96023,-3.92856 -0.73009,-5.89395 -2.88737,-9.5042 -3.61636,-8.33902 -0.94733,1.51416 -0.32187,1.71053 -2.22097,4.46878 -4.95734,7.20003 -4.46648,6.47784 -3.83028,3.67288 0.21618,-0.95314 0.66639,-2.22631 0.83148,-2.94385 0.16377,-0.71176 0.29708,-1.80755 0.29708,-1.80755 -0.12293,-1.98593 -0.19403,-2.19111 -0.76275,-4.42431 -0.58303,-2.28939 0.17029,0.91837 -2.91592,-8.83867 -0.83176,-2.62961 -1.59643,-3.67306 -2.77552,-9.10895 -1.05269,-4.85313 1.40113,-6.0702 -1.93184,-3.27472 -3.332957,2.79548 -0.50797,0.38952 -1.80374,1.51061 -3.695249,3.19707 -0.5082,0.40993 -3.273478,3.02595 -2.609228,2.46838 -4.513108,6.60671 -4.513108,6.60671 0,0 -1.508277,3.68369 -2.031242,6.56141 -0.833025,4.58389 1.786131,16.30569 1.786131,16.30569 z"
       id="path888"
       sodipodi:nodetypes="csssscssscssscssssscsssssscsc" />
  </g>
  <metadata
     id="metadata4219">
    <rdf:RDF>
      <cc:Work
         rdf:about="">
        <cc:license
           rdf:resource="http://creativecommons.org/licenses/by-nc/4.0/" />
      </cc:Work>
      <cc:License
         rdf:about="http://creativecommons.org/licenses/by-nc/4.0/">
        <cc:permits
           rdf:resource="http://creativecommons.org/ns#Reproduction" />
        <cc:permits
           rdf:resource="http://creativecommons.org/ns#Distribution" />
        <cc:requires
           rdf:resource="http://creativecommons.org/ns#Notice" />
        <cc:requires
           rdf:resource="http://creativecommons.org/ns#Attribution" />
        <cc:prohibits
           rdf:resource="http://creativecommons.org/ns#CommercialUse" />
        <cc:permits
           rdf:resource="http://creativecommons.org/ns#DerivativeWorks" />
      </cc:License>
    </rdf:RDF>
  </metadata>
</svg>
